<mxfile host="app.diagrams.net" agent="Mozilla/5.0 (Windows NT 10.0; Win64; x64) AppleWebKit/537.36 (KHTML, like Gecko) Chrome/131.0.0.0 Safari/537.36" version="24.8.8">
  <diagram name="Seite-1" id="iUdiVS8_5Ydh5sOIjzpp">
    <mxGraphModel dx="1508" dy="399" grid="1" gridSize="10" guides="1" tooltips="1" connect="1" arrows="1" fold="1" page="1" pageScale="1" pageWidth="827" pageHeight="1169" math="0" shadow="0">
      <root>
        <mxCell id="0" />
        <mxCell id="1" parent="0" />
        <mxCell id="QbEHDC73TiJqhQOsBRqD-1" value="RÃ¼ckfrage" style="rounded=0;whiteSpace=wrap;html=1;" vertex="1" parent="1">
          <mxGeometry x="80" y="420" width="120" height="60" as="geometry" />
        </mxCell>
        <mxCell id="QbEHDC73TiJqhQOsBRqD-2" value="Adresse" style="rounded=0;whiteSpace=wrap;html=1;" vertex="1" parent="1">
          <mxGeometry x="250" y="830" width="90" height="50" as="geometry" />
        </mxCell>
        <mxCell id="QbEHDC73TiJqhQOsBRqD-3" value="Kontakt" style="rounded=0;whiteSpace=wrap;html=1;" vertex="1" parent="1">
          <mxGeometry x="270" y="555" width="120" height="60" as="geometry" />
        </mxCell>
        <mxCell id="QbEHDC73TiJqhQOsBRqD-10" style="edgeStyle=orthogonalEdgeStyle;rounded=0;orthogonalLoop=1;jettySize=auto;html=1;endArrow=none;endFill=0;" edge="1" parent="1" source="QbEHDC73TiJqhQOsBRqD-5" target="QbEHDC73TiJqhQOsBRqD-1">
          <mxGeometry relative="1" as="geometry" />
        </mxCell>
        <mxCell id="QbEHDC73TiJqhQOsBRqD-5" value="Text" style="ellipse;whiteSpace=wrap;html=1;" vertex="1" parent="1">
          <mxGeometry x="40" y="330" width="60" height="40" as="geometry" />
        </mxCell>
        <mxCell id="QbEHDC73TiJqhQOsBRqD-11" style="edgeStyle=orthogonalEdgeStyle;rounded=0;orthogonalLoop=1;jettySize=auto;html=1;endArrow=none;endFill=0;" edge="1" parent="1" source="QbEHDC73TiJqhQOsBRqD-6">
          <mxGeometry relative="1" as="geometry">
            <mxPoint x="140" y="420" as="targetPoint" />
            <Array as="points">
              <mxPoint x="140" y="375" />
              <mxPoint x="141" y="375" />
              <mxPoint x="141" y="420" />
            </Array>
          </mxGeometry>
        </mxCell>
        <mxCell id="QbEHDC73TiJqhQOsBRqD-6" value="Erfassungszeitpunkt" style="ellipse;whiteSpace=wrap;html=1;" vertex="1" parent="1">
          <mxGeometry x="90" y="290" width="120" height="40" as="geometry" />
        </mxCell>
        <mxCell id="QbEHDC73TiJqhQOsBRqD-12" style="edgeStyle=orthogonalEdgeStyle;rounded=0;orthogonalLoop=1;jettySize=auto;html=1;entryX=0.5;entryY=0;entryDx=0;entryDy=0;endArrow=none;endFill=0;" edge="1" parent="1" source="QbEHDC73TiJqhQOsBRqD-8" target="QbEHDC73TiJqhQOsBRqD-1">
          <mxGeometry relative="1" as="geometry">
            <Array as="points">
              <mxPoint x="240" y="350" />
              <mxPoint x="140" y="350" />
            </Array>
          </mxGeometry>
        </mxCell>
        <mxCell id="QbEHDC73TiJqhQOsBRqD-8" value="Thema" style="ellipse;whiteSpace=wrap;html=1;" vertex="1" parent="1">
          <mxGeometry x="210" y="310" width="60" height="30" as="geometry" />
        </mxCell>
        <mxCell id="QbEHDC73TiJqhQOsBRqD-13" style="edgeStyle=orthogonalEdgeStyle;rounded=0;orthogonalLoop=1;jettySize=auto;html=1;entryX=0.5;entryY=0;entryDx=0;entryDy=0;endArrow=none;endFill=0;" edge="1" parent="1" source="QbEHDC73TiJqhQOsBRqD-9" target="QbEHDC73TiJqhQOsBRqD-1">
          <mxGeometry relative="1" as="geometry" />
        </mxCell>
        <mxCell id="QbEHDC73TiJqhQOsBRqD-9" value="Dringlichkeit" style="ellipse;whiteSpace=wrap;html=1;" vertex="1" parent="1">
          <mxGeometry x="250" y="350" width="80" height="50" as="geometry" />
        </mxCell>
        <mxCell id="QbEHDC73TiJqhQOsBRqD-15" value="&lt;u&gt;RFNummer&lt;/u&gt;" style="ellipse;whiteSpace=wrap;html=1;" vertex="1" parent="1">
          <mxGeometry x="-50" y="410" width="90" height="50" as="geometry" />
        </mxCell>
        <mxCell id="QbEHDC73TiJqhQOsBRqD-16" style="edgeStyle=orthogonalEdgeStyle;rounded=0;orthogonalLoop=1;jettySize=auto;html=1;entryX=0;entryY=0.5;entryDx=0;entryDy=0;endArrow=none;endFill=0;" edge="1" parent="1" source="QbEHDC73TiJqhQOsBRqD-15" target="QbEHDC73TiJqhQOsBRqD-1">
          <mxGeometry relative="1" as="geometry">
            <mxPoint x="70" y="460" as="targetPoint" />
          </mxGeometry>
        </mxCell>
        <mxCell id="QbEHDC73TiJqhQOsBRqD-21" style="edgeStyle=orthogonalEdgeStyle;rounded=0;orthogonalLoop=1;jettySize=auto;html=1;entryX=0.5;entryY=0;entryDx=0;entryDy=0;endArrow=none;endFill=0;" edge="1" parent="1" source="QbEHDC73TiJqhQOsBRqD-20" target="QbEHDC73TiJqhQOsBRqD-3">
          <mxGeometry relative="1" as="geometry" />
        </mxCell>
        <mxCell id="QbEHDC73TiJqhQOsBRqD-20" value="E-Mail" style="ellipse;whiteSpace=wrap;html=1;" vertex="1" parent="1">
          <mxGeometry x="330" y="450" width="70" height="40" as="geometry" />
        </mxCell>
        <mxCell id="QbEHDC73TiJqhQOsBRqD-24" style="edgeStyle=orthogonalEdgeStyle;rounded=0;orthogonalLoop=1;jettySize=auto;html=1;entryX=0.5;entryY=0;entryDx=0;entryDy=0;endArrow=none;endFill=0;" edge="1" parent="1" source="QbEHDC73TiJqhQOsBRqD-22" target="QbEHDC73TiJqhQOsBRqD-3">
          <mxGeometry relative="1" as="geometry">
            <Array as="points">
              <mxPoint x="450" y="520" />
              <mxPoint x="330" y="520" />
            </Array>
          </mxGeometry>
        </mxCell>
        <mxCell id="QbEHDC73TiJqhQOsBRqD-22" value="Vo&lt;span style=&quot;background-color: initial;&quot;&gt;rname&lt;/span&gt;" style="ellipse;whiteSpace=wrap;html=1;" vertex="1" parent="1">
          <mxGeometry x="415" y="450" width="70" height="40" as="geometry" />
        </mxCell>
        <mxCell id="QbEHDC73TiJqhQOsBRqD-25" style="edgeStyle=orthogonalEdgeStyle;rounded=0;orthogonalLoop=1;jettySize=auto;html=1;entryX=0.5;entryY=0;entryDx=0;entryDy=0;endArrow=none;endFill=0;" edge="1" parent="1" source="QbEHDC73TiJqhQOsBRqD-23" target="QbEHDC73TiJqhQOsBRqD-3">
          <mxGeometry relative="1" as="geometry">
            <mxPoint x="330" y="550" as="targetPoint" />
            <Array as="points">
              <mxPoint x="330" y="520" />
            </Array>
          </mxGeometry>
        </mxCell>
        <mxCell id="QbEHDC73TiJqhQOsBRqD-23" value="Nachname" style="ellipse;whiteSpace=wrap;html=1;" vertex="1" parent="1">
          <mxGeometry x="480" y="490" width="90" height="40" as="geometry" />
        </mxCell>
        <mxCell id="QbEHDC73TiJqhQOsBRqD-27" style="edgeStyle=orthogonalEdgeStyle;rounded=0;orthogonalLoop=1;jettySize=auto;html=1;entryX=1;entryY=0.5;entryDx=0;entryDy=0;endArrow=none;endFill=0;" edge="1" parent="1" source="QbEHDC73TiJqhQOsBRqD-26" target="QbEHDC73TiJqhQOsBRqD-3">
          <mxGeometry relative="1" as="geometry" />
        </mxCell>
        <mxCell id="QbEHDC73TiJqhQOsBRqD-26" value="Anrede" style="ellipse;whiteSpace=wrap;html=1;" vertex="1" parent="1">
          <mxGeometry x="490" y="545" width="70" height="45" as="geometry" />
        </mxCell>
        <mxCell id="QbEHDC73TiJqhQOsBRqD-29" style="edgeStyle=orthogonalEdgeStyle;rounded=0;orthogonalLoop=1;jettySize=auto;html=1;endArrow=none;endFill=0;" edge="1" parent="1" source="QbEHDC73TiJqhQOsBRqD-28" target="QbEHDC73TiJqhQOsBRqD-3">
          <mxGeometry relative="1" as="geometry">
            <mxPoint x="390" y="590" as="targetPoint" />
          </mxGeometry>
        </mxCell>
        <mxCell id="QbEHDC73TiJqhQOsBRqD-28" value="Telefonnr." style="ellipse;whiteSpace=wrap;html=1;" vertex="1" parent="1">
          <mxGeometry x="485" y="600" width="80" height="50" as="geometry" />
        </mxCell>
        <mxCell id="QbEHDC73TiJqhQOsBRqD-31" style="edgeStyle=orthogonalEdgeStyle;rounded=0;orthogonalLoop=1;jettySize=auto;html=1;endArrow=none;endFill=0;" edge="1" parent="1" source="QbEHDC73TiJqhQOsBRqD-30">
          <mxGeometry relative="1" as="geometry">
            <mxPoint x="330" y="550" as="targetPoint" />
            <Array as="points">
              <mxPoint x="275" y="500" />
              <mxPoint x="331" y="500" />
              <mxPoint x="331" y="550" />
            </Array>
          </mxGeometry>
        </mxCell>
        <mxCell id="QbEHDC73TiJqhQOsBRqD-30" value="kontakt_id" style="ellipse;whiteSpace=wrap;html=1;" vertex="1" parent="1">
          <mxGeometry x="240" y="450" width="70" height="40" as="geometry" />
        </mxCell>
        <mxCell id="QbEHDC73TiJqhQOsBRqD-34" style="edgeStyle=orthogonalEdgeStyle;rounded=0;orthogonalLoop=1;jettySize=auto;html=1;entryX=0.5;entryY=1;entryDx=0;entryDy=0;endArrow=none;endFill=0;" edge="1" parent="1" source="QbEHDC73TiJqhQOsBRqD-32" target="QbEHDC73TiJqhQOsBRqD-3">
          <mxGeometry relative="1" as="geometry" />
        </mxCell>
        <mxCell id="QbEHDC73TiJqhQOsBRqD-32" value="isKunde" style="ellipse;whiteSpace=wrap;html=1;" vertex="1" parent="1">
          <mxGeometry x="360" y="660" width="60" height="40" as="geometry" />
        </mxCell>
        <mxCell id="QbEHDC73TiJqhQOsBRqD-35" style="edgeStyle=orthogonalEdgeStyle;rounded=0;orthogonalLoop=1;jettySize=auto;html=1;entryX=0.5;entryY=1;entryDx=0;entryDy=0;endArrow=none;endFill=0;" edge="1" parent="1" source="QbEHDC73TiJqhQOsBRqD-33" target="QbEHDC73TiJqhQOsBRqD-3">
          <mxGeometry relative="1" as="geometry">
            <Array as="points">
              <mxPoint x="478" y="640" />
              <mxPoint x="330" y="640" />
            </Array>
          </mxGeometry>
        </mxCell>
        <mxCell id="QbEHDC73TiJqhQOsBRqD-33" value="&lt;u&gt;zulieferer_id&lt;/u&gt;" style="ellipse;whiteSpace=wrap;html=1;dashed=1;" vertex="1" parent="1">
          <mxGeometry x="440" y="660" width="76" height="40" as="geometry" />
        </mxCell>
        <mxCell id="QbEHDC73TiJqhQOsBRqD-36" value="Zulieferer" style="rounded=0;whiteSpace=wrap;html=1;" vertex="1" parent="1">
          <mxGeometry x="540" y="930" width="120" height="60" as="geometry" />
        </mxCell>
        <mxCell id="QbEHDC73TiJqhQOsBRqD-38" style="edgeStyle=orthogonalEdgeStyle;rounded=0;orthogonalLoop=1;jettySize=auto;html=1;entryX=1;entryY=0.5;entryDx=0;entryDy=0;endArrow=none;endFill=0;" edge="1" parent="1" source="QbEHDC73TiJqhQOsBRqD-37" target="QbEHDC73TiJqhQOsBRqD-36">
          <mxGeometry relative="1" as="geometry" />
        </mxCell>
        <mxCell id="QbEHDC73TiJqhQOsBRqD-37" value="&lt;u&gt;zulieferer_id&lt;/u&gt;" style="ellipse;whiteSpace=wrap;html=1;" vertex="1" parent="1">
          <mxGeometry x="740" y="890" width="90" height="40" as="geometry" />
        </mxCell>
        <mxCell id="QbEHDC73TiJqhQOsBRqD-55" style="edgeStyle=orthogonalEdgeStyle;rounded=0;orthogonalLoop=1;jettySize=auto;html=1;endArrow=none;endFill=0;" edge="1" parent="1" source="QbEHDC73TiJqhQOsBRqD-39">
          <mxGeometry relative="1" as="geometry">
            <mxPoint x="610" y="990" as="targetPoint" />
          </mxGeometry>
        </mxCell>
        <mxCell id="QbEHDC73TiJqhQOsBRqD-39" value="zeitfenster_mo" style="ellipse;whiteSpace=wrap;html=1;" vertex="1" parent="1">
          <mxGeometry x="360" y="1000" width="100" height="40" as="geometry" />
        </mxCell>
        <mxCell id="QbEHDC73TiJqhQOsBRqD-54" style="edgeStyle=orthogonalEdgeStyle;rounded=0;orthogonalLoop=1;jettySize=auto;html=1;endArrow=none;endFill=0;" edge="1" parent="1" source="QbEHDC73TiJqhQOsBRqD-41">
          <mxGeometry relative="1" as="geometry">
            <mxPoint x="600" y="990" as="targetPoint" />
          </mxGeometry>
        </mxCell>
        <mxCell id="QbEHDC73TiJqhQOsBRqD-41" value="zeitfenster_di" style="ellipse;whiteSpace=wrap;html=1;" vertex="1" parent="1">
          <mxGeometry x="410" y="1040" width="100" height="40" as="geometry" />
        </mxCell>
        <mxCell id="QbEHDC73TiJqhQOsBRqD-53" style="edgeStyle=orthogonalEdgeStyle;rounded=0;orthogonalLoop=1;jettySize=auto;html=1;entryX=0.5;entryY=1;entryDx=0;entryDy=0;endArrow=none;endFill=0;" edge="1" parent="1" source="QbEHDC73TiJqhQOsBRqD-42" target="QbEHDC73TiJqhQOsBRqD-36">
          <mxGeometry relative="1" as="geometry" />
        </mxCell>
        <mxCell id="QbEHDC73TiJqhQOsBRqD-42" value="zeitfenster_mi" style="ellipse;whiteSpace=wrap;html=1;" vertex="1" parent="1">
          <mxGeometry x="520" y="1070" width="100" height="40" as="geometry" />
        </mxCell>
        <mxCell id="QbEHDC73TiJqhQOsBRqD-43" value="zeitfenster_do" style="ellipse;whiteSpace=wrap;html=1;" vertex="1" parent="1">
          <mxGeometry x="615" y="1050" width="100" height="40" as="geometry" />
        </mxCell>
        <mxCell id="QbEHDC73TiJqhQOsBRqD-44" value="zeitfenster_fr" style="ellipse;whiteSpace=wrap;html=1;" vertex="1" parent="1">
          <mxGeometry x="700" y="1020" width="100" height="40" as="geometry" />
        </mxCell>
        <mxCell id="QbEHDC73TiJqhQOsBRqD-50" style="edgeStyle=orthogonalEdgeStyle;rounded=0;orthogonalLoop=1;jettySize=auto;html=1;entryX=1;entryY=0.5;entryDx=0;entryDy=0;endArrow=none;endFill=0;" edge="1" parent="1" source="QbEHDC73TiJqhQOsBRqD-45" target="QbEHDC73TiJqhQOsBRqD-36">
          <mxGeometry relative="1" as="geometry" />
        </mxCell>
        <mxCell id="QbEHDC73TiJqhQOsBRqD-45" value="zeitfenster_sa" style="ellipse;whiteSpace=wrap;html=1;" vertex="1" parent="1">
          <mxGeometry x="760" y="980" width="100" height="40" as="geometry" />
        </mxCell>
        <mxCell id="QbEHDC73TiJqhQOsBRqD-49" style="edgeStyle=orthogonalEdgeStyle;rounded=0;orthogonalLoop=1;jettySize=auto;html=1;endArrow=none;endFill=0;" edge="1" parent="1" source="QbEHDC73TiJqhQOsBRqD-46">
          <mxGeometry relative="1" as="geometry">
            <mxPoint x="660" y="960" as="targetPoint" />
          </mxGeometry>
        </mxCell>
        <mxCell id="QbEHDC73TiJqhQOsBRqD-46" value="zeitfenster_so" style="ellipse;whiteSpace=wrap;html=1;" vertex="1" parent="1">
          <mxGeometry x="770" y="930" width="100" height="40" as="geometry" />
        </mxCell>
        <mxCell id="QbEHDC73TiJqhQOsBRqD-51" style="edgeStyle=orthogonalEdgeStyle;rounded=0;orthogonalLoop=1;jettySize=auto;html=1;entryX=0.573;entryY=0.973;entryDx=0;entryDy=0;entryPerimeter=0;endArrow=none;endFill=0;" edge="1" parent="1" source="QbEHDC73TiJqhQOsBRqD-44" target="QbEHDC73TiJqhQOsBRqD-36">
          <mxGeometry relative="1" as="geometry" />
        </mxCell>
        <mxCell id="QbEHDC73TiJqhQOsBRqD-52" style="edgeStyle=orthogonalEdgeStyle;rounded=0;orthogonalLoop=1;jettySize=auto;html=1;entryX=0.5;entryY=1;entryDx=0;entryDy=0;endArrow=none;endFill=0;" edge="1" parent="1" source="QbEHDC73TiJqhQOsBRqD-43" target="QbEHDC73TiJqhQOsBRqD-36">
          <mxGeometry relative="1" as="geometry" />
        </mxCell>
        <mxCell id="QbEHDC73TiJqhQOsBRqD-65" style="edgeStyle=orthogonalEdgeStyle;rounded=0;orthogonalLoop=1;jettySize=auto;html=1;endArrow=none;endFill=0;" edge="1" parent="1" source="QbEHDC73TiJqhQOsBRqD-57">
          <mxGeometry relative="1" as="geometry">
            <mxPoint x="250" y="850" as="targetPoint" />
          </mxGeometry>
        </mxCell>
        <mxCell id="QbEHDC73TiJqhQOsBRqD-57" value="StraÃe" style="ellipse;whiteSpace=wrap;html=1;" vertex="1" parent="1">
          <mxGeometry x="110" y="830" width="80" height="40" as="geometry" />
        </mxCell>
        <mxCell id="QbEHDC73TiJqhQOsBRqD-66" style="edgeStyle=orthogonalEdgeStyle;rounded=0;orthogonalLoop=1;jettySize=auto;html=1;entryX=0;entryY=0.5;entryDx=0;entryDy=0;endArrow=none;endFill=0;" edge="1" parent="1" source="QbEHDC73TiJqhQOsBRqD-58" target="QbEHDC73TiJqhQOsBRqD-2">
          <mxGeometry relative="1" as="geometry">
            <Array as="points">
              <mxPoint x="230" y="855" />
            </Array>
          </mxGeometry>
        </mxCell>
        <mxCell id="QbEHDC73TiJqhQOsBRqD-58" value="Hausnummer" style="ellipse;whiteSpace=wrap;html=1;" vertex="1" parent="1">
          <mxGeometry x="130" y="885" width="100" height="50" as="geometry" />
        </mxCell>
        <mxCell id="QbEHDC73TiJqhQOsBRqD-67" style="edgeStyle=orthogonalEdgeStyle;rounded=0;orthogonalLoop=1;jettySize=auto;html=1;entryX=0.5;entryY=1;entryDx=0;entryDy=0;endArrow=none;endFill=0;" edge="1" parent="1" source="QbEHDC73TiJqhQOsBRqD-59" target="QbEHDC73TiJqhQOsBRqD-2">
          <mxGeometry relative="1" as="geometry" />
        </mxCell>
        <mxCell id="QbEHDC73TiJqhQOsBRqD-59" value="PLZ" style="ellipse;whiteSpace=wrap;html=1;" vertex="1" parent="1">
          <mxGeometry x="220" y="920" width="60" height="40" as="geometry" />
        </mxCell>
        <mxCell id="QbEHDC73TiJqhQOsBRqD-68" style="edgeStyle=orthogonalEdgeStyle;rounded=0;orthogonalLoop=1;jettySize=auto;html=1;entryX=0.5;entryY=1;entryDx=0;entryDy=0;endArrow=none;endFill=0;" edge="1" parent="1" source="QbEHDC73TiJqhQOsBRqD-60" target="QbEHDC73TiJqhQOsBRqD-2">
          <mxGeometry relative="1" as="geometry" />
        </mxCell>
        <mxCell id="QbEHDC73TiJqhQOsBRqD-60" value="Ort" style="ellipse;whiteSpace=wrap;html=1;" vertex="1" parent="1">
          <mxGeometry x="280" y="910" width="50" height="40" as="geometry" />
        </mxCell>
        <mxCell id="QbEHDC73TiJqhQOsBRqD-64" style="edgeStyle=orthogonalEdgeStyle;rounded=0;orthogonalLoop=1;jettySize=auto;html=1;entryX=0;entryY=0.5;entryDx=0;entryDy=0;endArrow=none;endFill=0;" edge="1" parent="1" source="QbEHDC73TiJqhQOsBRqD-61" target="QbEHDC73TiJqhQOsBRqD-2">
          <mxGeometry relative="1" as="geometry" />
        </mxCell>
        <mxCell id="QbEHDC73TiJqhQOsBRqD-61" value="adressen_id" style="ellipse;whiteSpace=wrap;html=1;" vertex="1" parent="1">
          <mxGeometry x="130" y="785" width="90" height="40" as="geometry" />
        </mxCell>
        <mxCell id="QbEHDC73TiJqhQOsBRqD-63" style="edgeStyle=orthogonalEdgeStyle;rounded=0;orthogonalLoop=1;jettySize=auto;html=1;entryX=0;entryY=0.5;entryDx=0;entryDy=0;endArrow=none;endFill=0;" edge="1" parent="1" source="QbEHDC73TiJqhQOsBRqD-62" target="QbEHDC73TiJqhQOsBRqD-3">
          <mxGeometry relative="1" as="geometry" />
        </mxCell>
        <mxCell id="QbEHDC73TiJqhQOsBRqD-62" value="&lt;u&gt;Reschnungsadresse&lt;/u&gt;" style="ellipse;whiteSpace=wrap;html=1;dashed=1;" vertex="1" parent="1">
          <mxGeometry x="70" y="640" width="140" height="35" as="geometry" />
        </mxCell>
        <mxCell id="QbEHDC73TiJqhQOsBRqD-69" value="&lt;u&gt;kontakt_id&lt;/u&gt;" style="ellipse;whiteSpace=wrap;html=1;dashed=1;" vertex="1" parent="1">
          <mxGeometry x="280" y="750" width="90" height="50" as="geometry" />
        </mxCell>
        <mxCell id="QbEHDC73TiJqhQOsBRqD-70" style="edgeStyle=orthogonalEdgeStyle;rounded=0;orthogonalLoop=1;jettySize=auto;html=1;entryX=0.5;entryY=0;entryDx=0;entryDy=0;endArrow=none;endFill=0;" edge="1" parent="1" source="QbEHDC73TiJqhQOsBRqD-69" target="QbEHDC73TiJqhQOsBRqD-2">
          <mxGeometry relative="1" as="geometry" />
        </mxCell>
        <mxCell id="QbEHDC73TiJqhQOsBRqD-72" style="edgeStyle=orthogonalEdgeStyle;rounded=0;orthogonalLoop=1;jettySize=auto;html=1;entryX=1;entryY=0.75;entryDx=0;entryDy=0;endArrow=none;endFill=0;" edge="1" parent="1" source="QbEHDC73TiJqhQOsBRqD-71" target="QbEHDC73TiJqhQOsBRqD-2">
          <mxGeometry relative="1" as="geometry" />
        </mxCell>
        <mxCell id="QbEHDC73TiJqhQOsBRqD-71" value="Anschrift-Art" style="ellipse;whiteSpace=wrap;html=1;" vertex="1" parent="1">
          <mxGeometry x="380" y="840" width="100" height="40" as="geometry" />
        </mxCell>
        <mxCell id="QbEHDC73TiJqhQOsBRqD-73" value="&lt;u&gt;kontakt_id&lt;/u&gt;" style="ellipse;whiteSpace=wrap;html=1;dashed=1;" vertex="1" parent="1">
          <mxGeometry x="30" y="520" width="100" height="40" as="geometry" />
        </mxCell>
        <mxCell id="QbEHDC73TiJqhQOsBRqD-74" style="edgeStyle=orthogonalEdgeStyle;rounded=0;orthogonalLoop=1;jettySize=auto;html=1;entryX=0.389;entryY=0.999;entryDx=0;entryDy=0;entryPerimeter=0;endArrow=none;endFill=0;" edge="1" parent="1" source="QbEHDC73TiJqhQOsBRqD-73" target="QbEHDC73TiJqhQOsBRqD-1">
          <mxGeometry relative="1" as="geometry" />
        </mxCell>
      </root>
    </mxGraphModel>
  </diagram>
</mxfile>
